<svg width="97" height="85" viewBox="0 0 97 85" fill="none" xmlns="http://www.w3.org/2000/svg">
<path d="M29.0281 81.5C15.6734 77.426 6.03368 71.015 2.52809 57.5C1.88326 55.014 1.52809 51 1.52809 51C1.52809 51 0.33989 44.0146 1.52809 40.5C2.60401 37.3175 2.52809 34.5 4.02809 32.5C6.38584 29.3563 13.5 25.5 13.5 25.5C18 14.5 18 13 22.0281 2L35.5 24.5C35.5 24.5 40.7383 25.0273 44.5 25.5C53.9719 26.5 62.5 24.5 62.5 24.5L77.5 2L84 25.5C84 25.5 91.6586 33.6332 94.0281 40.5C96.6395 48.0679 96.0281 56 94.0281 61C92.0281 66 85.2454 74.3263 76.5281 78.5C68.3581 82.4116 62.6977 82.8613 53.5281 83.5C43.9516 84.1669 38.1796 84.2917 29.0281 81.5Z" fill="#D9D9D9" stroke="black"/>
</svg>
