<svg width="125" height="55" viewBox="0 0 125 55" fill="none" xmlns="http://www.w3.org/2000/svg">
<path d="M41.5553 14.575C41.5553 16.1632 40.2214 17.7514 37.637 17.7514C36.2197 17.7514 35.136 17.5007 34.5524 16.9155C32.1347 14.157 30.384 12.4016 29.3836 11.8165C27.6328 10.3118 25.4653 9.64308 23.0476 9.72667C14.7942 10.7298 10.2923 16.7483 9.54201 27.866C9.79211 34.3861 10.9593 39.0672 13.1268 41.9929C15.3778 45.3366 18.4624 47.0084 22.2139 46.9248C26.7992 46.9248 30.5507 46.0053 33.4686 44.2499C34.1355 43.7484 34.8858 43.4976 35.7195 43.4976C37.4703 43.4976 38.6374 44.1663 39.221 45.4202C39.7212 46.1725 39.9713 46.8412 39.9713 47.3428C39.9713 49.4326 39.221 50.8536 37.637 51.6059C33.0518 53.8629 27.3827 54.9496 20.7967 54.9496C14.0439 54.5316 9.12517 52.0239 5.87382 47.51C2.289 41.9093 0.538277 35.222 0.788381 27.5316C0.788381 20.8443 2.87258 14.9093 6.95761 9.81026C11.126 4.6276 16.3782 2.03627 22.6308 2.03627C30.0505 2.03627 35.8863 4.96197 40.138 10.7298C41.0551 11.4821 41.5553 12.8196 41.5553 14.575Z" fill="#FFB341"/>
<path d="M72.1565 40.2375C72.0731 37.3118 71.4895 33.9682 70.4058 30.3737C68.9885 26.7793 66.4041 24.9403 62.7359 24.9403C59.4012 25.6926 57.1503 27.2809 56.0665 29.705C55.3162 32.4635 54.9827 35.3892 55.1494 38.4821C55.8998 43.1632 58.3174 45.671 62.3191 46.0889C64.3199 46.0889 66.3207 45.5038 68.4049 44.2499C70.4891 42.996 71.7397 41.6586 72.1565 40.2375ZM76.8251 22.349C79.2428 26.1106 80.66 31.2096 81.0769 37.479C81.327 40.4047 83.161 43.2468 86.7459 46.0053C87.4962 47.0084 87.913 47.8443 87.913 48.5966C88.0798 49.7669 87.8297 50.8536 87.0794 51.9403C86.2457 53.027 84.9118 53.6121 83.161 53.6121C80.5766 52.6926 78.2423 50.6864 76.3249 47.7607C75.8247 48.6802 74.6575 49.7669 72.8234 50.9372C68.9052 53.6957 64.7368 54.6152 60.3183 53.8629C55.5663 53.4449 51.9815 51.8567 49.7305 49.0982C47.3962 45.9217 46.0623 42.1601 45.6455 37.8134C45.3954 33.9682 46.1457 30.123 47.7297 26.2778C49.3137 23.3521 51.4813 21.0951 54.3158 19.4233C57.2336 17.6679 59.9848 16.8319 62.6526 16.8319C66.7376 16.5812 70.3224 17.2499 73.3236 18.8381C74.7409 19.7576 75.9081 20.9279 76.8251 22.349Z" fill="white"/>
<path d="M124.765 8.22203C124.765 10.061 124.431 11.3149 123.764 11.9836C122.931 12.9031 121.18 13.3211 118.429 13.2375C114.01 13.3211 109.759 13.2375 105.59 12.9031C105.424 24.8567 105.424 36.9775 105.674 49.349C105.674 53.1106 104.256 54.9496 101.339 54.9496C98.3373 54.9496 96.8367 52.7762 96.8367 48.3459C96.7533 37.897 96.6699 25.7762 96.5865 12.0672C93.9188 11.6493 89.667 11.0641 83.9146 10.2282C79.4961 9.30872 77.2452 7.38611 77.2452 4.29324C77.2452 2.03627 78.9126 0.949585 82.2473 0.949585L83.331 1.28395C87.7495 2.53782 93.4186 3.54091 100.171 4.20965C107.758 5.12915 114.844 5.29633 121.597 4.71119C123.681 4.96197 124.765 6.13225 124.765 8.22203Z" fill="#FFDC5F"/>
</svg>
