<svg width="28" height="28" viewBox="0 0 28 28" fill="none" xmlns="http://www.w3.org/2000/svg">
<path d="M5.1582 27.7069C3.73633 27.7069 2.66081 27.3515 1.93164 26.6405C1.21159 25.9296 0.851562 24.8678 0.851562 23.455V7.705C0.851562 6.29224 1.21159 5.23039 1.93164 4.51945C2.66081 3.80851 3.73633 3.45304 5.1582 3.45304H19.8418L17.5996 5.69523H5.21289C4.5293 5.69523 4.00521 5.87752 3.64062 6.24211C3.27604 6.60669 3.09375 7.13989 3.09375 7.84172V23.3319C3.09375 24.0429 3.27604 24.5761 3.64062 24.9316C4.00521 25.287 4.5293 25.4648 5.21289 25.4648H21.1543C21.6191 25.4648 22.0202 25.287 22.3574 24.9316C22.6947 24.5761 22.8633 24.0429 22.8633 23.3319V11.0956L25.1055 8.85343V23.455C25.1055 24.8678 24.7637 25.9296 24.0801 26.6405C23.3965 27.3515 22.4349 27.7069 21.1953 27.7069H5.1582ZM10.1484 18.8202C10.0208 18.8749 9.90234 18.8476 9.79297 18.7382C9.68359 18.6197 9.66081 18.5012 9.72461 18.3827L10.9551 15.7987L23.6836 3.07023L25.5703 4.92961L12.8281 17.6581L10.1484 18.8202ZM26.582 3.93156L24.6953 2.03117L25.6934 1.04679C25.9212 0.828044 26.1855 0.709554 26.4863 0.691325C26.7871 0.663981 27.0423 0.759684 27.252 0.978434L27.5664 1.30656C27.8125 1.53442 27.931 1.79875 27.9219 2.09953C27.9219 2.40031 27.8034 2.67375 27.5664 2.91984L26.582 3.93156Z" fill="white"/>
</svg>
