<svg width="28" height="28" viewBox="0 0 28 28" fill="none" xmlns="http://www.w3.org/2000/svg">
<path d="M5.1582 27.707C3.73633 27.707 2.66081 27.3516 1.93164 26.6406C1.21159 25.9297 0.851562 24.8678 0.851562 23.4551V7.70508C0.851562 6.29232 1.21159 5.23047 1.93164 4.51953C2.66081 3.80859 3.73633 3.45312 5.1582 3.45312H19.8418L17.5996 5.69531H5.21289C4.5293 5.69531 4.00521 5.8776 3.64062 6.24219C3.27604 6.60677 3.09375 7.13997 3.09375 7.8418V23.332C3.09375 24.043 3.27604 24.5762 3.64062 24.9316C4.00521 25.2871 4.5293 25.4648 5.21289 25.4648H21.1543C21.6191 25.4648 22.0202 25.2871 22.3574 24.9316C22.6947 24.5762 22.8633 24.043 22.8633 23.332V11.0957L25.1055 8.85352V23.4551C25.1055 24.8678 24.7637 25.9297 24.0801 26.6406C23.3965 27.3516 22.4349 27.707 21.1953 27.707H5.1582ZM10.1484 18.8203C10.0208 18.875 9.90234 18.8477 9.79297 18.7383C9.68359 18.6198 9.66081 18.5013 9.72461 18.3828L10.9551 15.7988L23.6836 3.07031L25.5703 4.92969L12.8281 17.6582L10.1484 18.8203ZM26.582 3.93164L24.6953 2.03125L25.6934 1.04688C25.9212 0.828125 26.1855 0.709635 26.4863 0.691406C26.7871 0.664062 27.0423 0.759766 27.252 0.978516L27.5664 1.30664C27.8125 1.53451 27.931 1.79883 27.9219 2.09961C27.9219 2.40039 27.8034 2.67383 27.5664 2.91992L26.582 3.93164Z" fill="white"/>
</svg>
