<svg width="59" height="59" viewBox="0 0 59 59" fill="none" xmlns="http://www.w3.org/2000/svg">
<path d="M29.5 0C13.2012 0 0 13.544 0 30.249C0 43.6165 8.45175 54.9523 20.1706 58.9477C21.6456 59.2326 22.1865 58.2974 22.1865 57.4933C22.1865 56.7748 22.1619 54.8717 22.1496 52.3509C13.9437 54.176 12.213 48.2925 12.213 48.2925C10.8707 44.8013 8.93112 43.8686 8.93112 43.8686C6.25892 41.9932 9.13763 42.031 9.13763 42.031C12.0999 42.2427 13.656 45.1466 13.656 45.1466C16.2865 49.7722 20.5615 48.4362 22.2479 47.6623C22.5134 45.7062 23.273 44.3728 24.1162 43.6165C17.5648 42.8603 10.679 40.2589 10.679 28.6685C10.679 25.3663 11.8221 22.6691 13.715 20.5517C13.3832 19.7879 12.3875 16.7126 13.9732 12.5458C13.9732 12.5458 16.4438 11.7341 22.0857 15.6463C24.4457 14.9733 26.9532 14.6405 29.4607 14.6254C31.9682 14.6405 34.4757 14.9733 36.8357 15.6463C42.4407 11.7341 44.9113 12.5458 44.9113 12.5458C46.4969 16.7126 45.5013 19.7879 45.2063 20.5517C47.0869 22.6691 48.23 25.3663 48.23 28.6685C48.23 40.2891 41.3344 42.8477 34.7707 43.5913C35.8032 44.4988 36.7619 46.3541 36.7619 49.1874C36.7619 53.2357 36.725 56.4875 36.725 57.4706C36.725 58.2646 37.2413 59.2099 38.7532 58.9074C50.5556 54.9397 59 43.5964 59 30.249C59 13.544 45.7914 0 29.5 0Z" fill="white"/>
</svg>
