<svg width="61" height="61" viewBox="0 0 61 61" fill="none" xmlns="http://www.w3.org/2000/svg">
<path d="M31.752 27.755V36.0917H52.2019C51.5759 40.7683 49.9769 44.192 47.5407 46.5964C44.5488 49.5117 39.8902 52.6964 31.752 52.6964C19.1613 52.6964 9.31981 42.8017 9.31981 30.533C9.31981 18.2644 19.1613 8.36971 31.752 8.36971C38.5339 8.36971 43.5081 10.98 47.1598 14.335L53.1774 8.47137C48.0989 3.66 41.2805 0 31.752 0C14.5027 0 0 13.692 0 30.5C0 47.308 14.5027 61 31.752 61C41.0718 61 48.0989 58.0186 53.5921 52.46C59.2263 46.97 61 39.2103 61 32.973C61 31.0414 60.8617 29.2444 60.5487 27.755H31.752Z" fill="white"/>
</svg>
