<svg width="302" height="393" viewBox="0 0 302 393" fill="none" xmlns="http://www.w3.org/2000/svg">
<path d="M101.029 207.263C66.5479 196.744 41.6589 180.191 32.6078 145.297C30.9428 138.878 30.0258 128.514 30.0258 128.514C30.0258 128.514 26.958 110.478 30.0258 101.404C32.8038 93.1871 32.6078 85.9124 36.4806 80.7486C42.5682 72.6319 60.9364 62.6751 60.9364 62.6751C72.555 34.274 72.555 30.4011 82.9552 2L117.739 60.0932C117.739 60.0932 131.263 61.4548 140.976 62.6751C165.432 65.2571 187.451 60.0932 187.451 60.0932L226.179 2L242.962 62.6751C242.962 62.6751 262.736 83.6743 268.854 101.404C275.596 120.944 274.017 141.424 268.854 154.333C263.69 167.243 246.177 188.741 223.67 199.517C202.576 209.616 187.961 210.778 164.286 212.426C139.56 214.149 124.657 214.471 101.029 207.263Z" fill="#D9D9D9" stroke="black"/>
<circle cx="98.3743" cy="136.26" r="10.3277" fill="black"/>
<circle cx="201.651" cy="136.26" r="10.3277" fill="black"/>
<path d="M106.12 137.551C106.12 138.977 104.964 140.133 103.538 140.133C102.112 140.133 100.956 138.977 100.956 137.551C100.956 136.125 102.112 134.969 103.538 134.969C104.964 134.969 106.12 136.125 106.12 137.551Z" fill="white"/>
<path d="M199.069 138.842C199.069 140.268 197.913 141.424 196.487 141.424C195.061 141.424 193.905 140.268 193.905 138.842C193.905 137.416 195.061 136.26 196.487 136.26C197.913 136.26 199.069 137.416 199.069 138.842Z" fill="white"/>
<path d="M99.3443 294.512C99.3443 298.364 96.0957 302.217 89.8014 302.217C86.3497 302.217 83.7102 301.609 82.2889 300.19C76.4007 293.498 72.1368 289.239 69.7003 287.82C65.4364 284.169 60.1574 282.547 54.2692 282.75C34.1681 285.183 23.2039 299.784 21.3765 326.755C21.9857 342.572 24.8282 353.928 30.1073 361.025C35.5894 369.137 43.1019 373.193 52.2388 372.99C63.406 372.99 72.5429 370.759 79.6493 366.501C81.2737 365.284 83.101 364.676 85.1314 364.676C89.3953 364.676 92.2379 366.298 93.6592 369.34C94.8774 371.165 95.4865 372.787 95.4865 374.004C95.4865 379.073 93.6592 382.521 89.8014 384.346C78.6341 389.821 64.8273 392.457 48.7871 392.457C32.3407 391.443 20.3613 385.36 12.4427 374.409C3.71195 360.823 -0.551918 344.6 0.0572048 325.943C0.0572048 309.72 5.13324 295.323 15.0823 282.953C25.2343 270.38 38.0259 264.094 53.254 264.094C71.3246 264.094 85.5375 271.191 95.8926 285.183C98.1261 287.008 99.3443 290.253 99.3443 294.512Z" fill="#FFB341"/>
<path d="M173.873 356.767C173.67 349.669 172.249 341.558 169.609 332.838C166.158 324.118 159.863 319.657 150.929 319.657C142.808 321.482 137.326 325.335 134.686 331.216C132.859 337.908 132.047 345.005 132.453 352.508C134.28 363.864 140.168 369.948 149.914 370.962C154.787 370.962 159.66 369.542 164.736 366.501C169.812 363.459 172.858 360.214 173.873 356.767ZM185.243 313.371C191.132 322.496 194.583 334.866 195.598 350.075C196.208 357.173 200.675 364.067 209.405 370.759C211.233 373.193 212.248 375.22 212.248 377.046C212.654 379.885 212.045 382.521 210.217 385.157C208.187 387.793 204.938 389.213 200.675 389.213C194.38 386.982 188.695 382.115 184.025 375.018C182.807 377.248 179.964 379.885 175.497 382.724C165.954 389.416 155.802 391.646 145.041 389.821C133.468 388.807 124.737 384.954 119.255 378.262C113.57 370.556 110.321 361.431 109.306 350.886C108.697 341.558 110.524 332.23 114.382 322.902C118.24 315.804 123.519 310.329 130.422 306.273C137.529 302.015 144.229 299.987 150.726 299.987C160.675 299.378 169.406 301.001 176.716 304.854C180.167 307.084 183.01 309.923 185.243 313.371Z" fill="white"/>
<path d="M302 279.1C302 283.561 301.188 286.603 299.563 288.225C297.533 290.456 293.269 291.47 286.569 291.267C275.808 291.47 265.453 291.267 255.301 290.456C254.894 319.454 254.894 348.858 255.504 378.871C255.504 387.996 252.052 392.457 244.945 392.457C237.636 392.457 233.981 387.185 233.981 376.437C233.778 351.089 233.575 321.685 233.372 288.428C226.875 287.414 216.52 285.994 202.51 283.967C191.749 281.736 186.267 277.072 186.267 269.569C186.267 264.094 190.327 261.457 198.449 261.457L201.089 262.268C211.85 265.31 225.657 267.744 242.103 269.366C260.58 271.597 277.838 272.002 294.284 270.583C299.36 271.191 302 274.03 302 279.1Z" fill="#FFDC5F"/>
</svg>
